<?xml version="1.0" encoding="UTF-8" standalone="no"?>
<!DOCTYPE svg PUBLIC "-//W3C//DTD SVG 1.1//EN" "http://www.w3.org/Graphics/SVG/1.1/DTD/svg11.dtd">
<svg width="100%" height="100%" viewBox="0 0 157 33" version="1.1" xmlns="http://www.w3.org/2000/svg" xmlns:xlink="http://www.w3.org/1999/xlink" xml:space="preserve" xmlns:serif="http://www.serif.com/" style="fill-rule:evenodd;clip-rule:evenodd;stroke-linejoin:round;stroke-miterlimit:2;">
    <g transform="matrix(0.951515,0,0,1,0,1)">
        <rect id="ArtBoard1" x="0" y="-1" width="165" height="33" style="fill:none;"/>
        <g id="ArtBoard11" serif:id="ArtBoard1">
            <g transform="matrix(1.83917,0,0,1.75,0,0)">
                <g id="Icons">
                    <g id="Group" transform="matrix(0.804567,-0.120515,0.120515,0.804567,-1.67244,0.219761)">
                        <g id="Shape">
                            <path d="M3.259,9.612L6.822,4.268C6.933,4.101 7.12,4 7.321,4L16.679,4C16.88,4 17.067,4.101 17.178,4.268L20.741,9.612C20.894,9.84 20.872,10.143 20.688,10.346L12,20L3.312,10.346C3.128,10.143 3.106,9.84 3.259,9.612Z" style="fill:url(#_Linear1);"/>
                            <path d="M9.658,11.758C9.792,11.898 9.786,12.121 9.646,12.255C9.505,12.389 9.282,12.383 9.149,12.243L7.245,10.243C7.127,10.118 7.116,9.927 7.218,9.789L8.715,7.789C8.831,7.634 9.052,7.602 9.207,7.718C9.363,7.835 9.395,8.055 9.278,8.211L7.96,9.973L9.658,11.758Z"/>
                        </g>
                    </g>
                    <g transform="matrix(0.24087,0.117361,-0.117361,0.24087,14.0347,9.75363)">
                        <g id="Group1" serif:id="Group">
                            <g id="Shape1" serif:id="Shape">
                                <path d="M3.259,9.612L6.822,4.268C6.933,4.101 7.12,4 7.321,4L16.679,4C16.88,4 17.067,4.101 17.178,4.268L20.741,9.612C20.894,9.84 20.872,10.143 20.688,10.346L12,20L3.312,10.346C3.128,10.143 3.106,9.84 3.259,9.612Z" style="fill:url(#_Linear2);"/>
                            </g>
                        </g>
                    </g>
                </g>
                <g transform="matrix(1.26326,0,0,1.26326,-36.3129,-5.56469)">
                    <path d="M49.353,11.968L50.785,11.968L51.633,13.068L52.238,13.783L53.691,15.65L52.157,15.65L51.168,14.397L50.747,13.8L49.353,11.968ZM53.9,10.536C53.9,11.477 53.724,12.281 53.374,12.95C53.023,13.619 52.546,14.131 51.942,14.487C51.338,14.842 50.654,15.019 49.89,15.019C49.126,15.019 48.442,14.841 47.838,14.484C47.234,14.128 46.757,13.615 46.406,12.946C46.055,12.277 45.88,11.474 45.88,10.536C45.88,9.596 46.055,8.791 46.406,8.122C46.757,7.453 47.234,6.941 47.838,6.586C48.442,6.231 49.126,6.053 49.89,6.053C50.654,6.053 51.338,6.231 51.942,6.586C52.546,6.941 53.023,7.453 53.374,8.122C53.724,8.791 53.9,9.596 53.9,10.536ZM52.31,10.536C52.31,9.874 52.207,9.315 52.001,8.859C51.796,8.403 51.511,8.058 51.147,7.824C50.783,7.59 50.364,7.472 49.89,7.472C49.416,7.472 48.997,7.59 48.633,7.824C48.269,8.058 47.984,8.403 47.778,8.859C47.573,9.315 47.47,9.874 47.47,10.536C47.47,11.198 47.573,11.757 47.778,12.213C47.984,12.669 48.269,13.014 48.633,13.249C48.997,13.483 49.416,13.6 49.89,13.6C50.364,13.6 50.783,13.483 51.147,13.249C51.511,13.014 51.796,12.669 52.001,12.213C52.207,11.757 52.31,11.198 52.31,10.536Z" style="fill-rule:nonzero;"/>
                    <path d="M59.512,12.147L59.512,8.354L61.055,8.354L61.055,14.9L59.559,14.9L59.559,13.737L59.491,13.737C59.343,14.103 59.101,14.403 58.764,14.636C58.428,14.869 58.014,14.985 57.522,14.985C57.093,14.985 56.715,14.889 56.386,14.697C56.058,14.506 55.802,14.226 55.617,13.858C55.433,13.49 55.34,13.045 55.34,12.522L55.34,8.354L56.883,8.354L56.883,12.283C56.883,12.698 56.997,13.028 57.224,13.272C57.451,13.516 57.749,13.639 58.119,13.639C58.346,13.639 58.566,13.583 58.779,13.472C58.992,13.362 59.168,13.196 59.305,12.976C59.443,12.756 59.512,12.479 59.512,12.147Z" style="fill-rule:nonzero;"/>
                    <path d="M64.524,15.032C64.109,15.032 63.736,14.957 63.405,14.808C63.074,14.659 62.813,14.438 62.621,14.146C62.429,13.853 62.333,13.492 62.333,13.063C62.333,12.694 62.401,12.389 62.538,12.147C62.674,11.906 62.86,11.712 63.096,11.568C63.332,11.423 63.598,11.313 63.895,11.237C64.192,11.162 64.499,11.107 64.818,11.073C65.201,11.033 65.512,10.997 65.751,10.965C65.989,10.932 66.163,10.881 66.273,10.811C66.382,10.742 66.437,10.633 66.437,10.485L66.437,10.46C66.437,10.139 66.342,9.89 66.151,9.714C65.961,9.538 65.687,9.45 65.329,9.45C64.951,9.45 64.652,9.532 64.432,9.697C64.212,9.862 64.063,10.056 63.987,10.281L62.546,10.076C62.66,9.678 62.847,9.345 63.109,9.077C63.37,8.808 63.69,8.607 64.068,8.472C64.445,8.337 64.863,8.269 65.32,8.269C65.636,8.269 65.95,8.306 66.262,8.38C66.575,8.454 66.86,8.575 67.119,8.744C67.377,8.913 67.585,9.143 67.743,9.433C67.901,9.722 67.979,10.085 67.979,10.519L67.979,14.9L66.497,14.9L66.497,14.001L66.445,14.001C66.352,14.183 66.22,14.352 66.051,14.51C65.882,14.668 65.671,14.794 65.416,14.889C65.162,14.984 64.864,15.032 64.524,15.032ZM64.924,13.898C65.234,13.898 65.502,13.837 65.729,13.713C65.957,13.59 66.132,13.425 66.256,13.221C66.379,13.016 66.441,12.793 66.441,12.552L66.441,11.781C66.393,11.82 66.311,11.857 66.196,11.891C66.081,11.925 65.952,11.955 65.81,11.981C65.668,12.006 65.528,12.029 65.389,12.049C65.249,12.069 65.129,12.086 65.026,12.1C64.796,12.131 64.59,12.183 64.408,12.254C64.227,12.325 64.083,12.423 63.978,12.55C63.873,12.676 63.82,12.839 63.82,13.038C63.82,13.322 63.924,13.536 64.131,13.681C64.339,13.826 64.603,13.898 64.924,13.898Z" style="fill-rule:nonzero;"/>
                    <path d="M71.077,11.065L71.077,14.9L69.535,14.9L69.535,8.354L71.009,8.354L71.009,9.467L71.086,9.467C71.237,9.1 71.477,8.809 71.808,8.593C72.139,8.377 72.549,8.269 73.038,8.269C73.489,8.269 73.884,8.366 74.22,8.559C74.557,8.752 74.818,9.032 75.004,9.398C75.19,9.765 75.282,10.21 75.279,10.732L75.279,14.9L73.737,14.9L73.737,10.971C73.737,10.533 73.624,10.191 73.398,9.944C73.172,9.697 72.86,9.573 72.462,9.573C72.193,9.573 71.953,9.632 71.744,9.75C71.536,9.868 71.372,10.038 71.254,10.259C71.136,10.481 71.077,10.749 71.077,11.065Z" style="fill-rule:nonzero;"/>
                    <path d="M80.12,8.354L80.12,9.548L76.357,9.548L76.357,8.354L80.12,8.354ZM77.286,6.786L78.829,6.786L78.829,12.931C78.829,13.139 78.861,13.297 78.925,13.406C78.989,13.516 79.073,13.59 79.178,13.63C79.283,13.67 79.4,13.69 79.528,13.69C79.624,13.69 79.713,13.683 79.794,13.668C79.875,13.654 79.937,13.641 79.979,13.63L80.239,14.836C80.157,14.864 80.04,14.896 79.888,14.93C79.736,14.964 79.55,14.984 79.332,14.989C78.945,15.001 78.597,14.942 78.288,14.813C77.978,14.683 77.733,14.482 77.553,14.21C77.372,13.937 77.283,13.596 77.286,13.187L77.286,6.786Z" style="fill-rule:nonzero;"/>
                    <g id="g">
                        <path d="M85.583,12.147L85.583,8.354L87.126,8.354L87.126,14.9L85.63,14.9L85.63,13.737L85.562,13.737C85.414,14.103 85.172,14.403 84.835,14.636C84.499,14.869 84.085,14.985 83.593,14.985C83.164,14.985 82.786,14.889 82.457,14.697C82.129,14.506 81.873,14.226 81.688,13.858C81.504,13.49 81.411,13.045 81.411,12.522L81.411,8.354L82.954,8.354L82.954,12.283C82.954,12.698 83.068,13.028 83.295,13.272C83.522,13.516 83.82,13.639 84.19,13.639C84.417,13.639 84.637,13.583 84.85,13.472C85.063,13.362 85.239,13.196 85.376,12.976C85.514,12.756 85.583,12.479 85.583,12.147Z" style="fill:url(#_Linear3);fill-rule:nonzero;"/>
                        <path d="M88.711,14.9L88.711,8.354L90.185,8.354L90.185,9.467L90.262,9.467C90.399,9.092 90.624,8.798 90.94,8.587C91.255,8.375 91.631,8.269 92.069,8.269C92.512,8.269 92.886,8.376 93.192,8.591C93.497,8.805 93.712,9.097 93.837,9.467L93.906,9.467C94.05,9.103 94.296,8.813 94.641,8.595C94.986,8.378 95.396,8.269 95.87,8.269C96.472,8.269 96.964,8.46 97.345,8.84C97.725,9.221 97.916,9.776 97.916,10.506L97.916,14.9L96.369,14.9L96.369,10.745C96.369,10.339 96.261,10.041 96.045,9.852C95.829,9.663 95.565,9.569 95.252,9.569C94.88,9.569 94.59,9.685 94.381,9.916C94.172,10.148 94.068,10.448 94.068,10.818L94.068,14.9L92.555,14.9L92.555,10.681C92.555,10.343 92.453,10.073 92.25,9.871C92.047,9.67 91.782,9.569 91.455,9.569C91.234,9.569 91.032,9.625 90.85,9.737C90.668,9.849 90.524,10.007 90.416,10.21C90.308,10.413 90.254,10.65 90.254,10.92L90.254,14.9L88.711,14.9Z" style="fill:url(#_Linear4);fill-rule:nonzero;"/>
                    </g>
                </g>
            </g>
        </g>
    </g>
    <defs>
        <linearGradient id="_Linear1" x1="0" y1="0" x2="1" y2="0" gradientUnits="userSpaceOnUse" gradientTransform="matrix(15,15.9995,-15.9995,15,7,4.00047)"><stop offset="0" style="stop-color:white;stop-opacity:1"/><stop offset="0" style="stop-color:rgb(27,0,255);stop-opacity:1"/><stop offset="1" style="stop-color:rgb(255,0,0);stop-opacity:1"/></linearGradient>
        <linearGradient id="_Linear2" x1="0" y1="0" x2="1" y2="0" gradientUnits="userSpaceOnUse" gradientTransform="matrix(15,15.9995,-15.9995,15,7,4.00047)"><stop offset="0" style="stop-color:white;stop-opacity:1"/><stop offset="0" style="stop-color:rgb(27,0,255);stop-opacity:1"/><stop offset="1" style="stop-color:rgb(255,0,0);stop-opacity:1"/></linearGradient>
        <linearGradient id="_Linear3" x1="0" y1="0" x2="1" y2="0" gradientUnits="userSpaceOnUse" gradientTransform="matrix(-23.0695,-6.7913,6.7913,-23.0695,105.191,16.1721)"><stop offset="0" style="stop-color:rgb(255,0,0);stop-opacity:1"/><stop offset="0.83" style="stop-color:rgb(27,0,255);stop-opacity:1"/><stop offset="1" style="stop-color:black;stop-opacity:1"/></linearGradient>
        <linearGradient id="_Linear4" x1="0" y1="0" x2="1" y2="0" gradientUnits="userSpaceOnUse" gradientTransform="matrix(-23.0695,-6.7913,6.7913,-23.0695,105.191,16.1721)"><stop offset="0" style="stop-color:rgb(255,0,0);stop-opacity:1"/><stop offset="0.83" style="stop-color:rgb(27,0,255);stop-opacity:1"/><stop offset="1" style="stop-color:black;stop-opacity:1"/></linearGradient>
    </defs>
</svg>
